<svg xmlns="http://www.w3.org/2000/svg" width="392.88" height="300.381" viewBox="0 0 392.88 300.381"><g transform="translate(-442.181 -189.564)"><path d="M27.495,0A27.5,27.5,0,0,1,54.989,27.495V63.406A27.495,27.495,0,1,1,0,63.406V27.495A27.5,27.5,0,0,1,27.495,0Z" transform="matrix(0.914, 0.407, -0.407, 0.914, 479.154, 341.192)" fill="#fff"/><path d="M183.6,300.381c-29.275,0-56.235-4.294-80.132-12.762a141.994,141.994,0,0,1-59.622-37.9,160.516,160.516,0,0,1-37.473-66.23C-4.477,145.539-1.4,106.043,15.042,72.276A132.776,132.776,0,0,1,46.9,30.161,120.849,120.849,0,0,1,126.7,0a125.485,125.485,0,0,1,43.527,7.9,139.583,139.583,0,0,1,39.154,22.325,152.787,152.787,0,0,1,31.543,34.735,162.465,162.465,0,0,1,20.689,45.107,165.884,165.884,0,0,1,4.752,22.36c7.046,29.525,22.174,50.557,44.966,62.512,14.178,7.437,31.047,11.208,50.139,11.208,2.609,0,4.766-.068,6.5-.123.988-.029,1.8-.049,2.407-.056h.324c6.532,0,9.22,1.345,10.324,2.474a2.279,2.279,0,0,1,.758,1.451v0l-.029.024a566.049,566.049,0,0,1-63.788,44.6c-21.68,13.015-42.592,23.448-62.157,31.011-24.47,9.459-46.9,14.441-66.675,14.808C187.475,300.365,185.666,300.381,183.6,300.381ZM203.159,185h0l-10.241,23.915a29.648,29.648,0,0,0-.551,21.9,28.8,28.8,0,0,0,5.6,9.307,27.355,27.355,0,0,0,8.905,6.585,26.5,26.5,0,0,0,11.185,2.481,26.771,26.771,0,0,0,14.821-4.5A28.2,28.2,0,0,0,243.221,232.2l11.412-26.651-4.89-1.955-2.342,6.17-.07-.028-8.649,20.018a22.619,22.619,0,0,1-8.347,9.992,21.622,21.622,0,0,1-20.992,1.617,22.107,22.107,0,0,1-7.2-5.279,22.986,22.986,0,0,1-4.518-7.462,23.466,23.466,0,0,1,.455-17.489l8.258-19.092-.063-.028,1.943-4.989L203.159,185ZM99.52,212.088h0a3.59,3.59,0,0,0,.378.021,3.916,3.916,0,0,0,.971-.124l21.619-5.728a3.69,3.69,0,0,0,2.274-1.741,3.613,3.613,0,0,0,.357-2.771,3.725,3.725,0,0,0-3.6-2.738,3.788,3.788,0,0,0-.965.126L99.52,204.708l-21.027-5.576a3.788,3.788,0,0,0-.965-.126,3.739,3.739,0,0,0-3.608,2.738,3.626,3.626,0,0,0,.364,2.774,3.7,3.7,0,0,0,2.274,1.738l21.619,5.728a3.864,3.864,0,0,0,.957.124,3.527,3.527,0,0,0,.385-.021ZM147.3,93.358c-13.627,0-26.668,10.88-31.716,26.457a40.427,40.427,0,0,0,.386,27.052c3.23,8.25,9.162,14.145,16.7,16.6a24.775,24.775,0,0,0,7.693,1.216c13.622,0,26.661-10.877,31.709-26.451a40.411,40.411,0,0,0-.379-27.059c-3.231-8.244-9.164-14.139-16.708-16.6A24.753,24.753,0,0,0,147.3,93.358Zm-75.057,0c-13.627,0-26.668,10.88-31.716,26.457a40.343,40.343,0,0,0,.386,27.052c3.222,8.248,9.154,14.142,16.7,16.6A24.775,24.775,0,0,0,65.3,164.68c13.622,0,26.661-10.877,31.709-26.451,6.143-18.993-1.522-38.577-17.087-43.656A24.753,24.753,0,0,0,72.24,93.358Z" transform="translate(453.284 189.564)" fill="#fff"/></g></svg>