<svg xmlns="http://www.w3.org/2000/svg" width="335.06" height="257.093" viewBox="0 0 335.06 257.093"><g transform="translate(-443.81 -189.564)"><path d="M24.5,0A24.5,24.5,0,0,1,49,24.5v32a24.5,24.5,0,0,1-49,0v-32A24.5,24.5,0,0,1,24.5,0Z" transform="matrix(0.914, 0.407, -0.407, 0.914, 476.755, 335.756)" fill="#fff"/><path d="M157.625-469.907a228.945,228.945,0,0,1-39.1-3.247,184.372,184.372,0,0,1-29.705-7.678A117.153,117.153,0,0,1,61.509-493.6a126.48,126.48,0,0,1-23.891-19.668A133.708,133.708,0,0,1,18.482-539a139.992,139.992,0,0,1-13.04-30.955A140.987,140.987,0,0,1,.642-595.1a136.214,136.214,0,0,1-.159-24.656,131.47,131.47,0,0,1,4.18-23.552,125.557,125.557,0,0,1,8.221-21.834,118.4,118.4,0,0,1,11.96-19.5,111,111,0,0,1,15.4-16.549,105.334,105.334,0,0,1,18.538-12.983,103.9,103.9,0,0,1,21.376-8.8,103.775,103.775,0,0,1,28.6-4.025,108.037,108.037,0,0,1,37.374,6.756,119.917,119.917,0,0,1,33.622,19.111,130.693,130.693,0,0,1,27.085,29.728A138.766,138.766,0,0,1,224.61-632.8a141.75,141.75,0,0,1,4.084,19.141,102.2,102.2,0,0,0,6.717,19.522,78.893,78.893,0,0,0,9.154,15.037A69.435,69.435,0,0,0,267.3-560.155c12.17,6.364,26.653,9.59,43.047,9.59,2.294,0,4.294-.062,5.618-.1h.01c.8-.025,1.5-.046,2.024-.049h.271c5.611,0,7.922,1.152,8.873,2.118a1.924,1.924,0,0,1,.652,1.243l-.006.006c-.611.508-6.231,5.152-15.373,11.9-8.843,6.523-22.861,16.38-39.419,26.289a351.4,351.4,0,0,1-53.375,26.545,214.149,214.149,0,0,1-28.772,8.952,139.371,139.371,0,0,1-28.48,3.717C160.817-469.922,159.22-469.907,157.625-469.907Zm16.8-98.75-8.791,20.463a25.093,25.093,0,0,0-2.045,9.495,25.218,25.218,0,0,0,1.571,9.25,24.558,24.558,0,0,0,4.8,7.964,23.528,23.528,0,0,0,7.65,5.638,22.774,22.774,0,0,0,9.6,2.124,23.066,23.066,0,0,0,12.73-3.849,24.164,24.164,0,0,0,8.879-10.691l9.8-22.81-4.2-1.67-2.007,5.281-.063-.027-7.429,17.137a19.373,19.373,0,0,1-7.168,8.551,18.744,18.744,0,0,1-10.275,3.079,18.5,18.5,0,0,1-7.749-1.7,18.952,18.952,0,0,1-6.184-4.518,19.614,19.614,0,0,1-3.878-6.384,20,20,0,0,1-1.26-7.387,19.92,19.92,0,0,1,1.651-7.581l7.087-16.344-.049-.022,1.668-4.272ZM85.43-545.475h0c.115.011.222.017.326.017a3.242,3.242,0,0,0,.831-.109l18.562-4.9a3.174,3.174,0,0,0,1.955-1.488,3.1,3.1,0,0,0,.31-2.378,3.2,3.2,0,0,0-3.092-2.339,3.258,3.258,0,0,0-.831.108L85.43-551.8,67.37-556.564a3.258,3.258,0,0,0-.831-.108,3.2,3.2,0,0,0-3.092,2.339,3.1,3.1,0,0,0,.31,2.378,3.173,3.173,0,0,0,1.955,1.488l18.562,4.9a3.245,3.245,0,0,0,.83.108A3.205,3.205,0,0,0,85.43-545.475ZM126.451-647.1a23.46,23.46,0,0,0-8.459,1.62,28.4,28.4,0,0,0-7.785,4.586,33.388,33.388,0,0,0-6.47,7.144,37.032,37.032,0,0,0-4.516,9.294,36.651,36.651,0,0,0-1.823,12.1,31.97,31.97,0,0,0,2.153,11.06,25.782,25.782,0,0,0,5.656,8.824,21.529,21.529,0,0,0,8.687,5.384,21.342,21.342,0,0,0,6.6,1.042,23.46,23.46,0,0,0,8.459-1.62,28.4,28.4,0,0,0,7.784-4.586,33.4,33.4,0,0,0,6.471-7.145,37.022,37.022,0,0,0,4.515-9.294,36.618,36.618,0,0,0,1.823-12.1,31.971,31.971,0,0,0-2.153-11.06,25.78,25.78,0,0,0-5.656-8.823,21.52,21.52,0,0,0-8.688-5.385A21.339,21.339,0,0,0,126.451-647.1ZM62-647.1a23.46,23.46,0,0,0-8.459,1.62,28.4,28.4,0,0,0-7.785,4.586,33.406,33.406,0,0,0-6.47,7.144,37.035,37.035,0,0,0-4.516,9.294,36.651,36.651,0,0,0-1.822,12.1A31.968,31.968,0,0,0,35.1-601.3a25.782,25.782,0,0,0,5.656,8.824,21.53,21.53,0,0,0,8.687,5.384,21.344,21.344,0,0,0,6.6,1.042,23.458,23.458,0,0,0,8.458-1.62,28.387,28.387,0,0,0,7.784-4.586,33.4,33.4,0,0,0,6.471-7.145,37,37,0,0,0,4.515-9.294,36.617,36.617,0,0,0,1.823-12.1,31.971,31.971,0,0,0-2.153-11.06,25.779,25.779,0,0,0-5.656-8.823,21.52,21.52,0,0,0-8.688-5.385A21.339,21.339,0,0,0,62-647.1Z" transform="translate(451.07 916.565)" fill="#fff"/></g></svg>